# xmcd
#
# Track frame offsets: 
#        150
#        12383
#        32151
#        47391
#        64555
#        80990
#        99116
#        114362
#        127978
#        144068
#        160646
#
# Disc length: 2657 seconds
#
# Revision: 0
# Processed by: cddbd v1.5.2PL0 Copyright (c) Steve Scherf et al.
# Submitted via: ExactAudioCopy v1.0b4
#
DISCID=7a0a5f0b
DTITLE=Delta Deep - Delta Deep
DYEAR=2015
DGENRE=Blues Rock
TTITLE0=Bang the Lid
TTITLE1=Whiskey
TTITLE2=Down In the Delta
TTITLE3=Treat Her Like Candy
TTITLE4=Miss Me
TTITLE5=Burnt Sally
TTITLE6=Private Number (feat. David Coverdale)
TTITLE7=Shuffle Sweet
TTITLE8=Black Coffee (feat. Paul Cook and Simon Laffy)
TTITLE9=Feelit
TTITLE10=Mistreated (feat. Joe Elliott)
EXTD=
EXTT0=
EXTT1=
EXTT2=
EXTT3=
EXTT4=
EXTT5=
EXTT6=
EXTT7=
EXTT8=
EXTT9=
EXTT10=
PLAYORDER=
